<?xml version="1.0" standalone="no"?>
<!DOCTYPE svg PUBLIC "-//W3C//DTD SVG 20010904//EN"
 "http://www.w3.org/TR/2001/REC-SVG-20010904/DTD/svg10.dtd">
<svg version="1.0" xmlns="http://www.w3.org/2000/svg"
 width="512.000000pt" height="512.000000pt" viewBox="0 0 512.000000 512.000000"
 preserveAspectRatio="xMidYMid meet">
<metadata>
Created by potrace 1.15, written by Peter Selinger 2001-2017
</metadata>
<g transform="translate(0.000000,512.000000) scale(0.100000,-0.100000)"
fill="#000000" stroke="none">
<path d="M2445 4149 c-326 -47 -547 -259 -634 -610 -39 -160 -44 -244 -37
-604 5 -272 3 -359 -9 -436 -39 -263 -175 -440 -414 -539 -202 -83 -630 -173
-1118 -234 -105 -14 -201 -29 -212 -36 -15 -7 -21 -21 -21 -44 0 -42 28 -75
352 -408 289 -298 277 -291 416 -263 601 119 1096 423 1383 849 34 50 76 121
96 159 l35 70 -35 36 c-58 63 -147 191 -147 214 0 4 81 7 180 7 l180 0 0 -130
0 -130 100 0 100 0 0 130 0 130 180 0 c99 0 180 -3 180 -6 0 -19 -81 -135
-131 -188 l-58 -62 52 -97 c179 -336 462 -600 838 -782 167 -80 267 -117 439
-161 166 -43 291 -54 341 -30 31 15 350 335 545 547 61 67 74 86 74 114 0 25
-6 38 -21 45 -11 7 -109 23 -217 36 -545 69 -1009 173 -1184 266 -168 89 -274
226 -331 425 -21 75 -21 92 -19 468 3 402 -3 500 -38 646 -74 304 -232 494
-482 580 -132 44 -253 57 -383 38z m15 -319 l0 -100 -182 0 -183 1 53 49 c66
61 127 98 212 127 104 36 100 39 100 -77z m326 69 c65 -25 158 -85 203 -133
l35 -36 -182 0 -182 0 0 101 0 101 37 -7 c20 -3 60 -15 89 -26z m-326 -474 l0
-95 -270 0 -270 0 6 28 c3 15 14 57 25 95 l20 67 244 0 245 0 0 -95z m709 28
c11 -38 22 -80 25 -95 l6 -28 -270 0 -270 0 0 95 0 95 245 0 244 0 20 -67z
m-709 -433 l0 -100 -270 0 c-208 0 -272 3 -275 13 -2 6 -6 51 -10 100 l-6 87
280 0 281 0 0 -100z m757 33 c-4 -38 -7 -83 -7 -100 l0 -33 -275 0 -275 0 0
100 0 100 281 0 282 0 -6 -67z m-757 -433 l0 -100 -229 0 -229 0 -22 83 c-12
45 -24 90 -26 100 -5 16 12 17 250 17 l256 0 0 -100z m706 68 c-3 -17 -15 -62
-27 -100 l-20 -68 -229 0 -230 0 0 100 0 100 256 0 257 0 -7 -32z"/>
<path d="M2386 1868 c-3 -35 -8 -135 -11 -223 -4 -88 -13 -230 -21 -315 -17
-185 -10 -245 36 -284 71 -60 268 -60 340 0 46 40 53 97 35 293 -8 91 -19 259
-23 373 -4 114 -10 209 -13 213 -4 3 -32 -1 -65 -10 -84 -22 -164 -19 -251 9
-20 6 -22 3 -27 -56z"/>
<path d="M2211 1766 c-12 -19 -44 -62 -71 -96 -42 -52 -50 -69 -50 -104 0 -52
37 -132 86 -186 48 -53 50 -50 58 145 4 83 9 178 12 213 6 71 -4 79 -35 28z"/>
<path d="M2874 1758 c3 -18 8 -111 11 -206 4 -96 10 -183 14 -194 17 -46 131
127 131 200 0 26 -16 56 -72 132 -40 54 -77 99 -81 99 -4 1 -6 -14 -3 -31z"/>
</g>
</svg>
